<?xml version="1.0" encoding="utf-8"?>
<!-- Generator: Adobe Illustrator 24.3.0, SVG Export Plug-In . SVG Version: 6.00 Build 0)  -->
<svg version="1.1" id="Layer_1" xmlns="http://www.w3.org/2000/svg" xmlns:xlink="http://www.w3.org/1999/xlink" x="0px" y="0px"
	 viewBox="0 0 297 297" style="enable-background:new 0 0 297 297;" xml:space="preserve">
<style type="text/css">
	.st0{fill:url(#SVGID_1_);}
	.st1{fill:url(#SVGID_2_);}
</style>
<g>
	
		<linearGradient id="SVGID_1_" gradientUnits="userSpaceOnUse" x1="38.9748" y1="148.4983" x2="258.0197" y2="148.4983" gradientTransform="matrix(-0.6727 -0.7399 0.7399 -0.6727 138.5143 358.2732)">
		<stop  offset="0" style="stop-color:#FFA3E4"/>
		<stop  offset="1" style="stop-color:#CC52A8"/>
	</linearGradient>
	<path class="st0" d="M153.4,46.6c0.1,4-3.1,7.3-7,7.4c-4,0.1-7.3-3.1-7.4-7l-0.2-7.6c-24.9,2.2-47.4,12.7-64.7,28.7l5.3,5.1
		c1.4,1.4,2.2,3.2,2.2,5c0,1.8-0.6,3.7-2,5.1c-2.7,2.9-7.3,3-10.2,0.2l-5.3-5.1C49.4,96.4,40.1,119.1,39,143.7l7.6-0.2
		c4-0.1,7.3,3.1,7.4,7c0.1,4-3.1,7.3-7,7.4l-7.6,0.2c2.2,24.7,12.5,47,28.3,64.2l5.5-5.8c2.7-2.9,7.3-3,10.2-0.2
		c1.4,1.4,2.2,3.2,2.2,5c0,1.8-0.6,3.7-2,5.1l-5.5,5.8c18,15.1,40.8,24.6,65.7,25.6l-0.2-8.5c-0.1-4,3.1-7.3,7-7.4s7.3,3.1,7.4,7
		l0.2,8.5c24.6-2.2,46.8-12.4,64.1-28.1l-6.2-5.9c-2.9-2.7-3-7.3-0.2-10.2c2.7-2.9,7.3-3,10.2-0.2l6.3,6
		c15.2-18,24.7-40.9,25.8-65.9l-8.5,0.2c-4,0.1-7.3-3.1-7.4-7c-0.1-4,3.1-7.3,7-7.4l8.5-0.2c-2.2-24.8-12.6-47.2-28.5-64.5l-5.5,5.8
		c-2.7,2.9-7.3,3-10.2,0.2c-2.9-2.7-3-7.3-0.2-10.2l5.5-5.8c-17.9-15-40.7-24.3-65.4-25.4L153.4,46.6L153.4,46.6z M154.6,100
		l1.1,48.3c0.1,4-3.1,7.3-7,7.4l-69.6,1.6c-4,0.1-7.3-3.1-7.4-7s3.1-7.3,7-7.4l62.4-1.4l-0.9-41.2c-0.1-4,3.1-7.3,7-7.4
		C151.2,92.9,154.5,96,154.6,100z"/>
	
		<linearGradient id="SVGID_2_" gradientUnits="userSpaceOnUse" x1="6.618957e-02" y1="148.5" x2="296.9338" y2="148.5" gradientTransform="matrix(-0.6727 -0.7399 0.7399 -0.6727 138.5143 358.2732)">
		<stop  offset="0" style="stop-color:#FFE0F6"/>
		<stop  offset="1" style="stop-color:#CC52A8"/>
	</linearGradient>
	<path class="st1" d="M0,151.8C1.9,233.7,70,298.8,151.8,297c81.9-1.8,147-69.9,145.1-151.8S227-1.8,145.2,0S-1.8,70,0,151.8z
		 M272.4,145.7c1.5,68.3-52.8,125.2-121.2,126.7C82.9,274,26.1,219.6,24.6,151.3S77.4,26.1,145.7,24.6S270.9,77.4,272.4,145.7z"/>
</g>
</svg>
