<?xml version="1.0" encoding="utf-8"?>
<!-- Generator: Adobe Illustrator 24.3.0, SVG Export Plug-In . SVG Version: 6.00 Build 0)  -->
<svg version="1.1" id="Capa_1" xmlns="http://www.w3.org/2000/svg" xmlns:xlink="http://www.w3.org/1999/xlink" x="0px" y="0px"
	 viewBox="0 0 297 297" style="enable-background:new 0 0 297 297;" xml:space="preserve">
<style type="text/css">
	.st0{fill:url(#SVGID_1_);}
	.st1{fill:url(#SVGID_2_);}
</style>
<g>
	<linearGradient id="SVGID_1_" gradientUnits="userSpaceOnUse" x1="261.0753" y1="212.0587" x2="63.5727" y2="19.1521">
		<stop  offset="0" style="stop-color:#FFFFFF"/>
		<stop  offset="1.753783e-02" style="stop-color:#FAFAFB"/>
		<stop  offset="0.2868" style="stop-color:#B4B4C7"/>
		<stop  offset="0.5291" style="stop-color:#7D7D9D"/>
		<stop  offset="0.7362" style="stop-color:#55557F"/>
		<stop  offset="0.9" style="stop-color:#3C3C6D"/>
		<stop  offset="1" style="stop-color:#333366"/>
	</linearGradient>
	<path class="st0" d="M285.4,5.3C283.7,2,280.3,0,276.7,0h-79.2c-3.2,0-6.3,1.6-8.1,4.2L148.5,63L107.7,4.2
		c-1.8-2.7-4.9-4.2-8.1-4.2H20.3c-3.7,0-7.1,2-8.8,5.3s-1.5,7.2,0.6,10.2l69,99.4c-3.6,1.5-6.2,5-6.2,9.1c0,5.5,4.4,9.9,9.9,9.9h6.9
		c-21.1,16.8-34.7,42.6-34.7,71.7c0,50.4,41,91.4,91.4,91.4s91.4-41,91.4-91.4c0-29-13.6-54.9-34.7-71.7h6.9c5.5,0,9.9-4.4,9.9-9.9
		c0-4.1-2.5-7.7-6.2-9.1l69-99.4C286.9,12.5,287.1,8.6,285.4,5.3z M94.4,19.8l42.1,60.6L113,114.2h-8.3L39.2,19.8H94.4z
		 M220.2,205.6c0,39.5-32.1,71.7-71.7,71.7s-71.7-32.1-71.7-71.7s32.1-71.7,71.7-71.7S220.2,166.1,220.2,205.6z M192.3,114.2h-55.2
		l65.5-94.4h55.2L192.3,114.2z"/>
	<linearGradient id="SVGID_2_" gradientUnits="userSpaceOnUse" x1="178.7788" y1="237.4669" x2="137.4581" y2="198.4496">
		<stop  offset="0" style="stop-color:#FFFFFF"/>
		<stop  offset="1.753783e-02" style="stop-color:#FAFAFB"/>
		<stop  offset="0.2868" style="stop-color:#B4B4C7"/>
		<stop  offset="0.5291" style="stop-color:#7D7D9D"/>
		<stop  offset="0.7362" style="stop-color:#55557F"/>
		<stop  offset="0.9" style="stop-color:#3C3C6D"/>
		<stop  offset="1" style="stop-color:#333366"/>
	</linearGradient>
	<path class="st1" d="M167.1,231h-6.4v-65.2c0-3.8-2.2-7.2-5.6-8.9c-3.4-1.7-7.5-1.2-10.4,1.1l-20.8,16.3c-4.3,3.4-5,9.6-1.7,13.9
		c3.4,4.3,9.6,5,13.9,1.7l4.8-3.7V231h-6.4c-5.5,0-9.9,4.4-9.9,9.9c0,5.5,4.4,9.9,9.9,9.9h32.6c5.5,0,9.9-4.4,9.9-9.9
		C177,235.5,172.6,231,167.1,231z"/>
</g>
</svg>
