<?xml version="1.0" encoding="utf-8"?>
<!-- Generator: Adobe Illustrator 24.3.0, SVG Export Plug-In . SVG Version: 6.00 Build 0)  -->
<svg version="1.1" id="Layer_1" xmlns="http://www.w3.org/2000/svg" xmlns:xlink="http://www.w3.org/1999/xlink" x="0px" y="0px"
	 viewBox="0 0 512 512" style="enable-background:new 0 0 512 512;" xml:space="preserve">
<style type="text/css">
	.st0{fill:url(#SVGID_1_);}
</style>
<g>
	<g>
		<linearGradient id="SVGID_1_" gradientUnits="userSpaceOnUse" x1="137.6517" y1="143.312" x2="452.9502" y2="312.4792">
			<stop  offset="0" style="stop-color:#FF9999"/>
			<stop  offset="1" style="stop-color:#FFFFFF"/>
		</linearGradient>
		<path class="st0" d="M393,113h-60.3c-2.8-10.1-6.7-19.9-11.4-29H392c24.4,0,44.1-20,42.8-44.4C433.5,17.6,415.1,0,392.8,0L120,0
			C95.6,0,75.9,20,77.3,44.4c1.2,22,19.6,39.6,41.9,39.6h64.1c22.6,0,43.9,11,57.3,29H119.9c-24.4,0-44.1,20-42.8,44.4
			c1.2,22,19.6,39.6,41.9,39.6h121.7c-13.4,18-34.7,29-57.4,29h-64.3c0,0-42,18.5-42,41.5c0,11.7,4.7,22.5,13.3,30.5l181.1,200.2
			c7.9,8.8,19.3,13.8,31.2,13.8c10.4,0,20.4-3.9,28.2-10.9c8.3-7.5,13.2-17.9,13.8-29.1c0.6-11.2-3.3-22-10.8-30.3L211.7,307
			c44.7-8.3,83.9-36.2,106.9-77c2.3-4,0.9-9.1-3.1-11.3c-4-2.3-9.1-0.9-11.3,3.1c-23.1,40.7-64.2,67.2-109.9,70.7
			c-3.2,0.2-5.9,2.3-7.1,5.2s-0.6,6.3,1.6,8.6l132.8,146.5c4.6,5,6.9,11.6,6.5,18.4c-0.3,6.8-3.3,13-8.3,17.6
			c-4.7,4.3-10.8,6.6-17.1,6.6c-7.2,0-14.1-3-18.9-8.3L102.4,286.6c-0.2-0.2-0.3-0.4-0.5-0.5c-5.3-4.9-8.2-11.5-8.2-18.6
			c0-13.9,25.5-24.5,25.5-24.5h63.8c34.1,0,65.7-20,80.4-50.9c1.7-3.6,0.7-8-2.8-10.5c-1.4-1-3.2-1.5-5-1.5l-136,0
			c-12.4,0-24.3-10-25.8-22.3C91.9,142.2,104,129,119.1,129l135.2,0c2.3,0,4.5-0.8,6.1-2.4c2.5-2.5,3.1-6.2,1.6-9.3
			c-14.3-30-44.8-49.3-77.7-49.3l-65,0C106.8,68,95,58,93.5,45.7C91.6,30.2,103.7,17,118.8,17l274,0c12.4,0,24.3,10,25.8,22.3
			c1.9,15.5-10.2,28.7-25.3,28.7l-85.9,0c-2.5,0-4.9,1-6.5,2.8c-2.5,2.9-2.6,6.9-0.6,9.9c8.1,12.2,14.3,26.7,17.9,41.9
			c0.9,3.7,4.2,6.4,8.1,6.4h66.4c12.4,0,24.3,10,25.8,22.3c1.9,15.5-10.2,28.7-25.3,28.7h-66.8c-3.7,0-7.1,2.3-8.1,5.8
			c-1.8,5.8,2.5,11.2,8.1,11.2H393c23.2,0,42-18.8,42-42C435,131.8,416.1,113,393,113z"/>
	</g>
</g>
</svg>
